# xmcd
#
# Track frame offsets: 
#        150
#        16443
#        29683
#        42787
#        56165
#        70330
#        89059
#        104377
#        123785
#        141867
#        158837
#        177118
#        194121
#        208549
#        222639
#        234623
#        248187
#        258806
#        277614
#
# Disc length: 3940 seconds
#
# Revision: 0
# Processed by: cddbd v1.5.2PL0 Copyright (c) Steve Scherf et al.
# Submitted via: ExactAudioCopy v0.99pb4
#
DISCID=1c0f6213
DTITLE=Lisa Del Bo - 25 Jaar - CD 1
DYEAR=2015
DGENRE=Chanson
TTITLE0=What's A Woman
TTITLE1=Vlinder
TTITLE2=Liefde Is Een Kaartspel
TTITLE3=Eindeloos
TTITLE4=De Liefde Van Je Leven
TTITLE5=Hemelhoog
TTITLE6=Hoe Moet Ik Verder (Met Femke and The Big Sisters)
TTITLE7=Als Zijn Lied Weerklinkt (De Clochard)
TTITLE8=Zo Ken Je Mij Al Lang
TTITLE9=Die Allereerste Kus
TTITLE10=Radeloos
TTITLE11=Hou Van Mij
TTITLE12=Dicht Bij Jou
TTITLE13=Stilte Na De Storm (Met Eli)
TTITLE14=Mama, Hoe Gaat Het Met Jou (Met Krisia)
TTITLE15=De Adem Van De Lage Landen
TTITLE16=Draai Dan 797204
TTITLE17=Simply The Best
TTITLE18=Een Parel Als Jij
EXTD=
EXTT0=
EXTT1=
EXTT2=
EXTT3=
EXTT4=
EXTT5=
EXTT6=
EXTT7=
EXTT8=
EXTT9=
EXTT10=
EXTT11=
EXTT12=
EXTT13=
EXTT14=
EXTT15=
EXTT16=
EXTT17=
EXTT18=
PLAYORDER=
